<?xml version="1.0" encoding="UTF-8"?>
<svg xmlns="http://www.w3.org/2000/svg" xmlns:xlink="http://www.w3.org/1999/xlink" width="500px" height="500px" viewBox="0 0 500 500" version="1.1">
<g id="surface1">
<path style=" stroke:none;fill-rule:nonzero;fill:rgb(231,110,80);fill-opacity:1;" d="M 200.757812 59.496094 C 200.316406 60.816406 198.804688 64.109375 197.804688 65.917969 C 192.96875 74.828125 185.179688 80.980469 172.777344 85.59375 C 168.96875 87.035156 167.457031 87.476562 156.859375 90.378906 C 148.488281 92.652344 139.332031 96.410156 134.667969 99.488281 C 133.742188 100.097656 132.933594 100.585938 132.910156 100.585938 C 132.59375 100.585938 132.960938 99.488281 133.9375 97.4375 C 135.230469 94.726562 136.425781 91.96875 136.71875 90.992188 C 136.867188 90.503906 136.839844 90.332031 136.597656 90.332031 C 136.085938 90.332031 128.613281 93.308594 125 94.96875 C 121.925781 96.386719 118.140625 98.316406 114.601562 100.242188 C 113.792969 100.707031 113.0625 101.074219 112.964844 101.074219 C 112.890625 101.074219 112.769531 100.171875 112.671875 99.046875 C 111.914062 89.769531 113.234375 82.300781 116.945312 74.585938 C 118.945312 70.386719 120.898438 67.234375 123.316406 64.257812 C 124.902344 62.253906 125.5625 61.277344 125.390625 61.109375 C 125.316406 61.011719 124.585938 61.132812 123.78125 61.351562 C 119.117188 62.671875 112.402344 67.089844 106.691406 72.632812 C 101.929688 77.246094 99.585938 80.101562 96.214844 85.328125 C 93.996094 88.769531 91.773438 94.53125 90.355469 100.585938 C 88.109375 110.105469 86.28125 114.890625 83.058594 119.507812 C 80.347656 123.414062 79.222656 124.730469 74.21875 130.003906 C 71.777344 132.566406 69.898438 135.007812 69.238281 136.5 C 68.335938 138.476562 68.164062 141.015625 68.800781 143.308594 C 69.898438 147.339844 69.800781 147.828125 67.308594 151.5625 C 64.0625 156.421875 59.71875 160.253906 55.589844 161.890625 C 53.539062 162.695312 52.613281 162.769531 52.269531 162.15625 C 52.148438 161.9375 51.929688 160.523438 51.757812 159.03125 C 51.585938 157.542969 51.367188 156.152344 51.246094 155.980469 C 50.929688 155.515625 47.851562 158.765625 45.777344 161.742188 C 40.332031 169.554688 38.867188 178.757812 41.503906 188.476562 C 42.578125 192.382812 45.777344 197.851562 49.195312 201.585938 C 51.441406 204.078125 55.640625 207.273438 56.664062 207.273438 C 56.859375 207.273438 56.910156 206.835938 56.789062 205.738281 C 56.617188 204.027344 57.152344 201.539062 58.128906 199.609375 C 58.742188 198.339844 60.207031 196.53125 60.570312 196.53125 C 60.71875 196.53125 60.9375 196.875 61.085938 197.3125 C 61.644531 198.902344 63.304688 201.832031 64.625 203.5625 C 69.164062 209.472656 77.539062 214.625 84.839844 215.941406 C 87.035156 216.332031 89.015625 216.480469 89.234375 216.257812 C 89.378906 216.136719 88.453125 215.015625 86.574219 213.011719 C 85.644531 212.011719 84.886719 210.9375 85.132812 210.9375 C 89.40625 210.960938 93.1875 210.667969 95.460938 210.132812 C 98.097656 209.496094 100.34375 208.640625 100.34375 208.25 C 100.34375 208.152344 99.976562 207.957031 99.5625 207.886719 C 98.21875 207.59375 95.484375 206.078125 94.3125 205.003906 C 93.261719 204.027344 93.214844 203.953125 93.3125 202.855469 C 93.628906 199.558594 98.683594 192.359375 103.589844 188.230469 C 107.542969 184.910156 113.085938 181.761719 117.554688 180.320312 C 123.632812 178.367188 130.03125 178.199219 136.742188 179.832031 C 138.085938 180.152344 139.476562 180.417969 139.820312 180.417969 C 140.429688 180.417969 140.429688 180.371094 140.285156 179.296875 C 140.089844 177.832031 138.28125 174.070312 136.867188 172.191406 C 136.230469 171.363281 135.109375 170.117188 134.351562 169.433594 C 133.617188 168.75 133.058594 168.140625 133.128906 168.042969 C 133.398438 167.796875 135.351562 167.503906 136.964844 167.480469 C 139.820312 167.480469 143.628906 169.066406 146.875 171.65625 C 148.683594 173.09375 149.878906 174.460938 150.855469 176.269531 L 151.5625 177.5625 L 152.171875 176.367188 C 153.6875 173.363281 154.296875 170.335938 154.296875 165.992188 C 154.296875 159.960938 152.929688 155.445312 148.949219 148.316406 C 148.144531 146.851562 147.460938 145.554688 147.460938 145.457031 C 147.460938 144.675781 150.734375 146.800781 152.980469 149.023438 C 156.398438 152.441406 158.667969 156.46875 159.886719 161.179688 C 160.792969 164.625 160.960938 166.089844 160.960938 169.800781 C 160.9375 174.878906 160.109375 178.320312 157.714844 183.226562 C 155.175781 188.402344 151.390625 192.722656 144.75 197.996094 C 140.96875 201 132.300781 207.03125 127.074219 210.253906 C 119.945312 214.671875 117.238281 216.332031 112.183594 219.359375 C 100.636719 226.316406 93.773438 230.859375 89.355469 234.496094 C 86.378906 236.960938 81.445312 241.722656 78.980469 244.507812 C 72.242188 252.148438 67.285156 261.351562 66.039062 268.503906 C 65.625 270.800781 65.578125 271.972656 65.871094 271.972656 C 65.96875 271.972656 67.847656 270.140625 70.070312 267.917969 C 72.289062 265.699219 74.757812 263.355469 75.5625 262.71875 C 77.613281 261.109375 79.347656 259.9375 79.347656 260.203125 C 79.347656 260.328125 78.980469 260.914062 78.539062 261.5 C 78.078125 262.085938 77.050781 263.671875 76.246094 265.015625 C 70.265625 275 67.238281 286.597656 68.066406 296.214844 C 69.117188 308.570312 75.5625 318.164062 86.304688 323.363281 C 90.675781 325.488281 95.09375 326.441406 100.414062 326.390625 C 105.519531 326.34375 106.007812 325.976562 102.980469 324.460938 C 98.609375 322.265625 95.507812 319.089844 93.628906 314.84375 C 91.429688 309.863281 91.847656 302.292969 94.582031 298.167969 C 95.582031 296.628906 96.828125 295.410156 97.386719 295.410156 C 97.511719 295.410156 98.585938 296.191406 99.757812 297.144531 C 105.273438 301.539062 110.132812 303.90625 116.457031 305.296875 C 118.898438 305.835938 125.441406 306.054688 127.882812 305.664062 C 135.695312 304.441406 142.871094 301.074219 147.046875 296.65625 C 148.488281 295.117188 150.292969 292.308594 150.023438 292.039062 C 149.953125 291.96875 148.828125 292.40625 147.535156 293.042969 C 141.527344 295.847656 135.277344 297.386719 130.03125 297.363281 C 126 297.363281 124.023438 296.949219 121.144531 295.507812 C 116.992188 293.457031 113.917969 289.890625 112.378906 285.277344 C 111.742188 283.445312 111.71875 283.03125 111.71875 279.050781 C 111.71875 274.414062 111.964844 273.09375 113.5 269.3125 C 115.601562 264.257812 121.558594 257.128906 128.664062 251.195312 C 131.933594 248.460938 137.328125 244.410156 140.625 242.164062 C 141.894531 241.308594 142.992188 240.550781 143.066406 240.476562 C 143.238281 240.308594 145.800781 238.574219 152.34375 234.253906 C 155.371094 232.226562 159.691406 229.34375 161.9375 227.808594 L 166.015625 225.046875 L 166.015625 210.546875 L 165.234375 209.8125 C 164.796875 209.421875 163.597656 208.445312 162.574219 207.691406 C 159.328125 205.25 157.910156 203.34375 157.226562 200.464844 C 156.496094 197.339844 157.714844 193.992188 159.9375 193.164062 C 160.277344 193.015625 163.574219 192.847656 167.261719 192.773438 C 170.949219 192.675781 174.4375 192.578125 175.050781 192.527344 C 175.660156 192.480469 179.6875 192.359375 184.035156 192.234375 L 191.945312 192.066406 L 192.164062 191.480469 C 192.601562 190.332031 192.1875 186.277344 191.234375 182.203125 C 191.015625 181.226562 190.894531 180.347656 190.992188 180.273438 C 191.359375 179.882812 193.261719 180.785156 195.070312 182.203125 C 196.144531 183.03125 198.121094 184.742188 199.464844 185.984375 L 201.90625 188.28125 L 202.171875 187.574219 C 203.394531 184.398438 203.371094 174.390625 202.125 166.871094 C 201.269531 161.570312 199.023438 154.371094 196.996094 150.316406 L 196.289062 148.925781 L 196.828125 148.925781 C 197.558594 148.925781 203.394531 150.464844 206.175781 151.390625 C 208.691406 152.246094 211.15625 153.441406 213.234375 154.808594 C 214.015625 155.320312 214.746094 155.6875 214.867188 155.613281 C 215.796875 155.054688 213.746094 149.804688 211.035156 145.847656 C 205.714844 138.011719 198.707031 132.203125 188.917969 127.488281 C 187.0625 126.585938 185.546875 125.804688 185.546875 125.730469 C 185.546875 125.4375 190.992188 123.289062 196.09375 121.582031 C 199.023438 120.605469 201.585938 119.652344 201.832031 119.480469 C 202.246094 119.164062 202.246094 119.117188 201.710938 118.652344 C 200.511719 117.652344 193.824219 115.867188 187.574219 114.890625 C 181.226562 113.890625 171.972656 113.5 166.75 114.011719 C 165.480469 114.136719 164.40625 114.183594 164.355469 114.160156 C 164.183594 113.988281 164.964844 112.597656 165.917969 111.328125 C 168.042969 108.496094 171.679688 105.515625 179.566406 100.097656 C 187.160156 94.871094 190.234375 92.261719 193.507812 88.257812 C 199.367188 81.078125 202.6875 72.144531 202.320312 64.453125 C 202.148438 60.691406 201.292969 57.984375 200.757812 59.496094 Z M 108.59375 137.742188 C 105.199219 144.847656 99.097656 149.070312 89.039062 151.21875 C 87.453125 151.585938 85.960938 151.855469 85.742188 151.855469 C 85.5 151.855469 85.960938 151.292969 86.914062 150.414062 C 87.792969 149.632812 89.648438 147.65625 91.066406 145.996094 C 92.480469 144.359375 94.507812 142.308594 95.582031 141.453125 C 98.265625 139.28125 102.539062 137.253906 108.519531 135.300781 C 108.9375 135.179688 109.351562 135.15625 109.472656 135.253906 C 109.570312 135.375 109.179688 136.472656 108.59375 137.742188 Z M 105.371094 172.632812 C 108.226562 173.121094 108.253906 173.21875 105.566406 174.195312 C 102.90625 175.121094 97.363281 177.710938 95.335938 178.953125 C 92.359375 180.785156 89.113281 183.375 85.863281 186.523438 C 81.859375 190.40625 80.785156 191.015625 77.757812 191.113281 C 74.925781 191.210938 69.824219 190.160156 69.824219 189.476562 C 69.824219 189.355469 71.386719 187.671875 73.316406 185.71875 C 80.054688 178.882812 87.988281 174.414062 96.191406 172.851562 C 98.828125 172.339844 103.199219 172.242188 105.371094 172.632812 Z M 58.105469 174.316406 C 59.253906 175.464844 59.425781 177.222656 58.449219 177.855469 C 57.25 178.636719 53.980469 181.933594 52.589844 183.765625 C 51.613281 185.007812 51.125 185.496094 50.929688 185.300781 C 50.78125 185.15625 50.636719 184.300781 50.585938 183.375 C 50.390625 180.027344 52.296875 176.34375 55.152344 174.511719 C 56.445312 173.707031 57.421875 173.632812 58.105469 174.316406 Z M 58.105469 174.316406 "/>
<path style=" stroke:none;fill-rule:nonzero;fill:rgb(0%,0%,0%);fill-opacity:1;" d="M 350.171875 197.65625 C 349.925781 198.289062 350.34375 200.757812 350.757812 201.21875 C 350.953125 201.441406 351.683594 201.832031 352.394531 202.050781 C 354.417969 202.710938 356.910156 204.050781 358.058594 205.125 C 358.644531 205.664062 359.472656 206.785156 359.863281 207.617188 C 361.378906 210.691406 361.328125 208.863281 361.328125 250.367188 C 361.328125 273.386719 361.230469 288.84375 361.085938 289.84375 C 360.546875 293.578125 359.203125 295.628906 356.46875 296.898438 C 355.589844 297.3125 354.46875 297.828125 354.003906 298.046875 L 353.148438 298.460938 L 353.078125 300.585938 L 353.003906 302.734375 L 376.878906 302.734375 C 406.273438 302.734375 409.546875 302.5625 417.238281 300.683594 C 430.175781 297.484375 439.796875 290.992188 447.070312 280.515625 C 451.390625 274.292969 454.542969 265.160156 455.273438 256.835938 C 455.542969 253.734375 455.445312 245.09375 455.101562 242.429688 C 454.542969 237.964844 453.003906 232.152344 451.292969 228.027344 C 448.78125 221.996094 444.605469 215.992188 439.84375 211.523438 C 432.617188 204.734375 422.511719 200 411.5 198.242188 C 406.078125 197.386719 401.710938 197.265625 375.660156 197.289062 C 353.320312 197.289062 350.292969 197.339844 350.171875 197.65625 Z M 394.777344 208.738281 C 411.183594 209.9375 421.582031 217.722656 426.34375 232.324219 C 428.710938 239.597656 429.296875 244.164062 429.125 253.953125 C 429.003906 261.667969 428.6875 264.109375 427.148438 269.410156 C 424.511719 278.636719 419.945312 284.398438 412.183594 288.355469 C 406.910156 291.039062 401.710938 292.039062 394.042969 291.871094 C 389.746094 291.773438 387.011719 291.40625 386.476562 290.867188 C 386.15625 290.550781 386.109375 285.59375 386.035156 249.828125 C 386.011719 227.441406 386.035156 208.984375 386.085938 208.8125 C 386.230469 208.421875 390.136719 208.398438 394.777344 208.738281 Z M 394.777344 208.738281 "/>
<path style=" stroke:none;fill-rule:nonzero;fill:rgb(0%,0%,0%);fill-opacity:1;" d="M 163.695312 198.511719 C 163.183594 199.316406 164.769531 201.21875 168.214844 203.980469 C 170.191406 205.566406 171.386719 207.273438 171.996094 209.324219 C 172.316406 210.375 172.363281 216.113281 172.363281 250.976562 C 172.363281 295.582031 172.460938 292.992188 170.851562 294.824219 C 169.898438 295.921875 169.117188 296.3125 166.285156 297.167969 C 165.015625 297.535156 163.890625 297.996094 163.769531 298.167969 C 163.527344 298.558594 163.527344 302.027344 163.792969 302.441406 C 163.964844 302.710938 168.457031 302.757812 189.234375 302.660156 C 210.890625 302.585938 214.964844 302.515625 217.96875 302.148438 C 232.082031 300.488281 242.773438 295.214844 250.78125 285.9375 C 257.8125 277.808594 261.28125 268.945312 262.257812 256.664062 C 262.71875 251.050781 261.964844 242.917969 260.472656 237.183594 C 258.546875 229.6875 254.90625 222.386719 250.34375 216.796875 C 247.386719 213.160156 241.820312 208.324219 237.914062 206.003906 C 231.007812 201.902344 222.265625 199.242188 213.234375 198.484375 C 209.15625 198.144531 163.890625 198.167969 163.695312 198.511719 Z M 203.246094 209.253906 C 212.402344 210.035156 219.484375 213.132812 225.074219 218.75 C 227.636719 221.3125 228.957031 223.09375 230.738281 226.441406 C 234.691406 233.863281 236.378906 241.675781 236.402344 252.929688 C 236.449219 265.769531 234.351562 274.21875 229.492188 280.738281 C 225.171875 286.5 219.53125 289.867188 211.695312 291.308594 C 207.789062 292.015625 200.511719 292.039062 198.488281 291.355469 L 197.144531 290.894531 L 197.070312 249.925781 L 197.023438 208.984375 L 198.65625 208.984375 C 199.585938 208.984375 201.636719 209.105469 203.246094 209.253906 Z M 203.246094 209.253906 "/>
<path style=" stroke:none;fill-rule:nonzero;fill:rgb(0%,0%,0%);fill-opacity:1;" d="M 295.167969 225.609375 C 294.289062 225.730469 291.285156 226.148438 288.453125 226.5625 C 283.910156 227.195312 280.347656 227.539062 274.535156 227.878906 C 273.609375 227.953125 271.535156 228.003906 269.972656 228.003906 C 267.261719 228.027344 267.089844 228.050781 266.820312 228.5625 C 266.652344 228.882812 266.503906 229.636719 266.503906 230.273438 C 266.503906 231.6875 267.015625 232.324219 268.3125 232.542969 C 269.75 232.789062 271.996094 233.960938 273 234.984375 C 274.632812 236.695312 274.707031 237.15625 274.878906 246.460938 C 274.953125 251.023438 275.023438 262.769531 275 272.582031 C 274.976562 292.164062 274.953125 292.382812 273.488281 294.53125 C 272.679688 295.703125 271.777344 296.289062 269.191406 297.242188 L 267.210938 297.996094 L 267.210938 302.613281 L 286.28125 302.660156 L 305.371094 302.734375 L 305.519531 301.976562 C 305.785156 300.632812 305.664062 298.949219 305.296875 298.414062 C 305.101562 298.121094 304.515625 297.753906 304.003906 297.582031 C 302.660156 297.167969 300.734375 296.167969 300.097656 295.554688 C 299.390625 294.945312 298.925781 294.066406 298.316406 292.261719 C 297.851562 290.964844 297.851562 289.941406 297.851562 268.945312 L 297.851562 246.972656 L 298.558594 246.09375 C 299.414062 245.019531 302.074219 243.1875 304.320312 242.089844 C 311.402344 238.671875 317.628906 240.160156 320.335938 245.972656 C 321.925781 249.316406 321.898438 249.023438 321.898438 271.238281 C 321.898438 292.992188 321.898438 292.894531 320.605469 294.871094 C 319.75 296.140625 318.898438 296.824219 317.1875 297.507812 C 315.039062 298.386719 314.941406 298.511719 314.941406 300.78125 L 314.941406 302.734375 L 332.59375 302.683594 L 350.21875 302.613281 L 350.292969 300.925781 C 350.367188 298.972656 350.171875 298.632812 348.292969 297.753906 C 345.972656 296.65625 344.75 295.042969 344.261719 292.359375 C 344.09375 291.382812 343.996094 283.496094 343.996094 267.96875 C 343.996094 248.21875 343.945312 244.675781 343.605469 242.796875 C 342.871094 238.574219 341.601562 235.667969 339.0625 232.496094 C 335.597656 228.125 329.175781 225.339844 322.558594 225.339844 C 314.332031 225.339844 307.398438 228.171875 301.464844 233.960938 C 300.316406 235.058594 299.097656 236.328125 298.730469 236.792969 C 298.363281 237.230469 298.023438 237.574219 297.972656 237.5 C 297.925781 237.449219 297.851562 234.9375 297.828125 231.910156 C 297.804688 226.488281 297.65625 225.316406 297.070312 225.367188 C 296.898438 225.390625 296.046875 225.488281 295.167969 225.609375 Z M 295.167969 225.609375 "/>
<path style=" stroke:none;fill-rule:nonzero;fill:rgb(0%,0%,0%);fill-opacity:1;" d="M 124.902344 325.609375 C 120.386719 326.5625 117.015625 329.636719 116.066406 333.617188 C 115.1875 337.378906 116.554688 341.160156 119.554688 343.359375 C 120.851562 344.3125 123.976562 345.605469 127.320312 346.582031 C 130.175781 347.410156 132.863281 348.707031 133.644531 349.632812 C 134.132812 350.21875 134.277344 350.632812 134.277344 351.609375 C 134.277344 353.320312 133.617188 354.296875 131.910156 355.125 C 128.566406 356.761719 123.804688 355.90625 119.554688 352.878906 C 118.921875 352.417969 118.335938 352.050781 118.214844 352.050781 C 118.117188 352.050781 117.796875 352.417969 117.503906 352.855469 C 117.238281 353.269531 116.429688 354.417969 115.746094 355.394531 L 114.503906 357.128906 L 116.015625 358.277344 C 120.726562 361.816406 127.34375 363.132812 133.058594 361.667969 C 137.230469 360.59375 140.503906 357.640625 141.332031 354.246094 C 141.527344 353.417969 141.625 352.027344 141.554688 350.707031 C 141.429688 347.875 140.84375 346.605469 138.648438 344.480469 C 136.71875 342.601562 135.230469 341.894531 129.761719 340.210938 C 125.660156 338.941406 124.171875 338.160156 123.488281 336.914062 C 122.535156 335.15625 123.390625 333.226562 125.609375 332.128906 C 126.855469 331.542969 127.125 331.492188 129.320312 331.589844 C 131.324219 331.6875 132.03125 331.835938 133.59375 332.496094 C 134.621094 332.933594 135.890625 333.59375 136.402344 333.960938 C 136.914062 334.324219 137.453125 334.691406 137.621094 334.789062 C 137.941406 334.984375 141.480469 330.222656 141.261719 329.859375 C 140.992188 329.417969 137.769531 327.390625 136.304688 326.757812 C 133.128906 325.339844 128.371094 324.851562 124.902344 325.609375 Z M 124.902344 325.609375 "/>
<path style=" stroke:none;fill-rule:nonzero;fill:rgb(0%,0%,0%);fill-opacity:1;" d="M 164.671875 325.535156 C 161.449219 326.195312 159.425781 327.125 157.03125 328.953125 C 154.273438 331.078125 152.734375 333.054688 151.222656 336.328125 C 150.074219 338.792969 149.660156 340.746094 149.660156 343.773438 C 149.660156 352.636719 155.617188 360.082031 164.136719 361.839844 C 168.945312 362.816406 173.414062 362.109375 177.589844 359.644531 C 181.835938 357.152344 184.644531 353.34375 186.058594 348.265625 C 186.5 346.605469 186.574219 345.898438 186.449219 343.164062 C 186.304688 338.988281 185.644531 336.9375 183.203125 333.25 C 179.347656 327.34375 171.582031 324.121094 164.671875 325.535156 Z M 172.632812 332.59375 C 175.804688 334.105469 178.566406 337.695312 179.199219 341.039062 C 180.296875 346.898438 177.6875 352.441406 172.609375 354.929688 C 170.875 355.808594 170.703125 355.835938 168.214844 355.835938 C 165.773438 355.835938 165.578125 355.785156 163.769531 354.929688 C 159.523438 352.90625 157.128906 349.339844 156.8125 344.605469 C 156.496094 339.597656 159.007812 334.8125 163.039062 332.789062 C 165.113281 331.738281 166.015625 331.542969 168.578125 331.617188 C 170.53125 331.6875 170.972656 331.785156 172.632812 332.59375 Z M 172.632812 332.59375 "/>
<path style=" stroke:none;fill-rule:nonzero;fill:rgb(0%,0%,0%);fill-opacity:1;" d="M 197.511719 325.976562 C 197.511719 326.023438 197.484375 334.03125 197.4375 343.824219 L 197.386719 361.570312 L 204.589844 361.570312 L 204.589844 347.167969 L 219.726562 347.167969 L 219.726562 341.308594 L 204.589844 341.308594 L 204.589844 332.03125 L 212.964844 331.980469 L 221.3125 331.910156 L 221.3125 326.050781 L 209.425781 325.976562 C 202.855469 325.953125 197.511719 325.953125 197.511719 325.976562 Z M 197.511719 325.976562 "/>
<path style=" stroke:none;fill-rule:nonzero;fill:rgb(0%,0%,0%);fill-opacity:1;" d="M 231.859375 326.097656 C 231.761719 326.171875 231.691406 327.539062 231.691406 329.125 L 231.691406 332.03125 L 237.011719 332.078125 L 242.308594 332.152344 L 242.382812 346.851562 L 242.433594 361.570312 L 249.511719 361.570312 L 249.511719 332.03125 L 260.253906 332.03125 L 260.253906 325.925781 L 246.144531 325.925781 C 238.378906 325.925781 231.933594 326 231.859375 326.097656 Z M 231.859375 326.097656 "/>
<path style=" stroke:none;fill-rule:nonzero;fill:rgb(0%,0%,0%);fill-opacity:1;" d="M 269.214844 326.074219 C 269.140625 326.148438 269.164062 326.414062 269.289062 326.636719 C 269.410156 326.855469 270.191406 329.273438 270.996094 332.03125 C 271.828125 334.789062 272.753906 337.867188 273.070312 338.867188 C 273.390625 339.867188 274.316406 342.992188 275.171875 345.824219 C 276 348.632812 277.367188 353.296875 278.222656 356.152344 C 279.078125 359.007812 279.785156 361.402344 279.785156 361.472656 C 279.785156 361.523438 281.566406 361.546875 283.742188 361.523438 L 287.71875 361.449219 L 288.160156 359.742188 C 288.402344 358.789062 289.257812 355.785156 290.039062 353.027344 C 292.726562 343.699219 294.433594 337.523438 294.433594 337.230469 C 294.433594 337.058594 294.53125 336.914062 294.628906 336.914062 C 294.75 336.914062 295.117188 337.9375 295.460938 339.160156 C 295.800781 340.40625 296.605469 343.1875 297.242188 345.335938 C 300.390625 356.101562 301.125 358.640625 301.441406 360.058594 L 301.808594 361.570312 L 305.738281 361.523438 L 309.667969 361.449219 L 310.207031 359.617188 C 310.472656 358.617188 311.132812 356.421875 311.621094 354.734375 C 312.132812 353.050781 312.746094 351.023438 312.988281 350.21875 C 313.234375 349.414062 313.722656 347.753906 314.085938 346.558594 C 314.699219 344.507812 315.84375 340.625 317.285156 335.691406 C 318.433594 331.835938 318.554688 331.421875 319.214844 329.222656 C 319.582031 328.003906 319.945312 326.804688 319.996094 326.539062 C 320.09375 326.050781 320.019531 326.023438 316.382812 326.050781 L 312.648438 326.050781 L 312.355469 326.902344 C 312.183594 327.367188 311.9375 328.199219 311.792969 328.734375 C 311.378906 330.25 307.910156 342.652344 307.25 344.96875 C 306.933594 346.117188 306.46875 347.800781 306.25 348.753906 C 305.761719 350.925781 305.6875 351.171875 305.542969 351.023438 C 305.421875 350.902344 303.050781 343.015625 301.78125 338.5 C 301.390625 337.15625 300.734375 334.910156 300.292969 333.519531 C 299.855469 332.105469 299.195312 329.859375 298.828125 328.515625 L 298.167969 326.050781 L 291.429688 326.050781 L 290.285156 329.957031 C 289.648438 332.105469 288.183594 337.15625 287.011719 341.1875 C 285.816406 345.214844 284.691406 349.144531 284.496094 349.902344 C 284.132812 351.269531 283.691406 351.804688 283.691406 350.878906 C 283.691406 350.488281 281.542969 342.699219 280.175781 338.011719 C 279.957031 337.328125 279.199219 334.59375 278.441406 331.910156 C 277.6875 329.222656 276.976562 326.78125 276.855469 326.464844 C 276.636719 325.953125 276.515625 325.925781 273 325.925781 C 270.996094 325.925781 269.3125 326 269.214844 326.074219 Z M 269.214844 326.074219 "/>
<path style=" stroke:none;fill-rule:nonzero;fill:rgb(0%,0%,0%);fill-opacity:1;" d="M 338.695312 326.21875 C 338.550781 326.390625 338.28125 327.027344 338.0625 327.636719 C 337.378906 329.613281 329.957031 348.09375 326.292969 356.957031 C 325.292969 359.398438 324.464844 361.449219 324.464844 361.5 C 324.464844 361.546875 326.195312 361.546875 328.296875 361.523438 L 332.128906 361.449219 L 333.714844 357.46875 L 335.277344 353.515625 L 342.480469 353.5625 L 349.683594 353.636719 L 351.097656 357.175781 C 351.878906 359.128906 352.5625 360.914062 352.613281 361.132812 C 352.734375 361.523438 353.125 361.570312 356.542969 361.570312 C 358.644531 361.570312 360.351562 361.472656 360.351562 361.351562 C 360.351562 361.253906 360.035156 360.449219 359.644531 359.59375 C 358.789062 357.691406 356.324219 351.660156 353.761719 345.214844 C 352.734375 342.601562 351.488281 339.453125 351 338.257812 C 350.488281 337.035156 349.195312 333.8125 348.070312 331.054688 L 346.070312 326.050781 L 342.503906 325.976562 C 339.84375 325.925781 338.867188 326 338.695312 326.21875 Z M 342.773438 335.71875 C 342.773438 335.839844 343.773438 338.425781 344.972656 341.480469 C 346.191406 344.507812 347.167969 347.09375 347.167969 347.191406 C 347.167969 347.3125 345.019531 347.410156 342.382812 347.410156 L 337.597656 347.410156 L 337.71875 346.851562 C 337.792969 346.558594 338.0625 345.75 338.355469 345.09375 C 338.746094 344.117188 340.796875 338.964844 342.066406 335.742188 C 342.261719 335.203125 342.773438 335.203125 342.773438 335.71875 Z M 342.773438 335.71875 "/>
<path style=" stroke:none;fill-rule:nonzero;fill:rgb(0%,0%,0%);fill-opacity:1;" d="M 371.703125 326.121094 C 371.632812 326.195312 371.582031 334.203125 371.582031 343.921875 L 371.582031 361.570312 L 378.417969 361.570312 L 378.417969 349.121094 L 381.542969 349.144531 L 384.644531 349.144531 L 387.085938 352.808594 C 388.429688 354.832031 389.796875 356.882812 390.136719 357.421875 C 390.480469 357.933594 391.234375 359.082031 391.847656 359.960938 L 392.921875 361.570312 L 400.660156 361.570312 L 400.195312 360.886719 C 399.953125 360.523438 398.414062 358.347656 396.800781 356.078125 C 393.578125 351.488281 391.847656 348.949219 391.847656 348.804688 C 391.847656 348.753906 392.578125 348.339844 393.457031 347.875 C 396.535156 346.335938 398.265625 344.238281 399.269531 340.84375 C 399.78125 339.109375 399.78125 335.691406 399.269531 333.960938 C 398.21875 330.417969 394.703125 327.292969 390.746094 326.367188 C 389.527344 326.097656 371.972656 325.855469 371.703125 326.121094 Z M 389.234375 332.519531 C 391.480469 333.347656 392.601562 335.035156 392.628906 337.476562 C 392.628906 339.160156 392.335938 340.085938 391.457031 341.234375 C 390.285156 342.796875 389.867188 342.894531 383.863281 342.96875 L 378.417969 343.066406 L 378.417969 332.03125 L 383.179688 332.03125 C 387.328125 332.03125 388.085938 332.105469 389.234375 332.519531 Z M 389.234375 332.519531 "/>
<path style=" stroke:none;fill-rule:nonzero;fill:rgb(0%,0%,0%);fill-opacity:1;" d="M 412.597656 343.75 L 412.597656 361.570312 L 437.257812 361.570312 L 437.257812 355.46875 L 428.417969 355.417969 L 419.554688 355.347656 L 419.484375 351.121094 L 419.433594 346.921875 L 435.082031 346.921875 L 435.011719 343.796875 L 434.9375 340.699219 L 427.171875 340.625 L 419.433594 340.574219 L 419.484375 336.351562 L 419.554688 332.152344 L 428.296875 332.078125 L 437.011719 332.03125 L 437.011719 325.925781 L 412.597656 325.925781 Z M 412.597656 343.75 "/>
</g>
</svg>
