<?xml version="1.0" encoding="UTF-8"?>
<svg xmlns="http://www.w3.org/2000/svg" viewBox="6 47 290 290" role="img" aria-label="DnD dragon mark">
  <path fill="#e76e50" transform="translate(23.5 0)" d="M 200.757812 59.496094 C 200.316406 60.816406 198.804688 64.109375 197.804688 65.917969 C 192.96875 74.828125 185.179688 80.980469 172.777344 85.59375 C 168.96875 87.035156 167.457031 87.476562 156.859375 90.378906 C 148.488281 92.652344 139.332031 96.410156 134.667969 99.488281 C 133.742188 100.097656 132.933594 100.585938 132.910156 100.585938 C 132.59375 100.585938 132.960938 99.488281 133.9375 97.4375 C 135.230469 94.726562 136.425781 91.96875 136.71875 90.992188 C 136.867188 90.503906 136.839844 90.332031 136.597656 90.332031 C 136.085938 90.332031 128.613281 93.308594 125 94.96875 C 121.925781 96.386719 118.140625 98.316406 114.601562 100.242188 C 113.792969 100.707031 113.0625 101.074219 112.964844 101.074219 C 112.890625 101.074219 112.769531 100.171875 112.671875 99.046875 C 111.914062 89.769531 113.234375 82.300781 116.945312 74.585938 C 118.945312 70.386719 120.898438 67.234375 123.316406 64.257812 C 124.902344 62.253906 125.5625 61.277344 125.390625 61.109375 C 125.316406 61.011719 124.585938 61.132812 123.78125 61.351562 C 119.117188 62.671875 112.402344 67.089844 106.691406 72.632812 C 101.929688 77.246094 99.585938 80.101562 96.214844 85.328125 C 93.996094 88.769531 91.773438 94.53125 90.355469 100.585938 C 88.109375 110.105469 86.28125 114.890625 83.058594 119.507812 C 80.347656 123.414062 79.222656 124.730469 74.21875 130.003906 C 71.777344 132.566406 69.898438 135.007812 69.238281 136.5 C 68.335938 138.476562 68.164062 141.015625 68.800781 143.308594 C 69.898438 147.339844 69.800781 147.828125 67.308594 151.5625 C 64.0625 156.421875 59.71875 160.253906 55.589844 161.890625 C 53.539062 162.695312 52.613281 162.769531 52.269531 162.15625 C 52.148438 161.9375 51.929688 160.523438 51.757812 159.03125 C 51.585938 157.542969 51.367188 156.152344 51.246094 155.980469 C 50.929688 155.515625 47.851562 158.765625 45.777344 161.742188 C 40.332031 169.554688 38.867188 178.757812 41.503906 188.476562 C 42.578125 192.382812 45.777344 197.851562 49.195312 201.585938 C 51.441406 204.078125 55.640625 207.273438 56.664062 207.273438 C 56.859375 207.273438 56.910156 206.835938 56.789062 205.738281 C 56.617188 204.027344 57.152344 201.539062 58.128906 199.609375 C 58.742188 198.339844 60.207031 196.53125 60.570312 196.53125 C 60.71875 196.53125 60.9375 196.875 61.085938 197.3125 C 61.644531 198.902344 63.304688 201.832031 64.625 203.5625 C 69.164062 209.472656 77.539062 214.625 84.839844 215.941406 C 87.035156 216.332031 89.015625 216.480469 89.234375 216.257812 C 89.378906 216.136719 88.453125 215.015625 86.574219 213.011719 C 85.644531 212.011719 84.886719 210.9375 85.132812 210.9375 C 89.40625 210.960938 93.1875 210.667969 95.460938 210.132812 C 98.097656 209.496094 100.34375 208.640625 100.34375 208.25 C 100.34375 208.152344 99.976562 207.957031 99.5625 207.886719 C 98.21875 207.59375 95.484375 206.078125 94.3125 205.003906 C 93.261719 204.027344 93.214844 203.953125 93.3125 202.855469 C 93.628906 199.558594 98.683594 192.359375 103.589844 188.230469 C 107.542969 184.910156 113.085938 181.761719 117.554688 180.320312 C 123.632812 178.367188 130.03125 178.199219 136.742188 179.832031 C 138.085938 180.152344 139.476562 180.417969 139.820312 180.417969 C 140.429688 180.417969 140.429688 180.371094 140.285156 179.296875 C 140.089844 177.832031 138.28125 174.070312 136.867188 172.191406 C 136.230469 171.363281 135.109375 170.117188 134.351562 169.433594 C 133.617188 168.75 133.058594 168.140625 133.128906 168.042969 C 133.398438 167.796875 135.351562 167.503906 136.964844 167.480469 C 139.820312 167.480469 143.628906 169.066406 146.875 171.65625 C 148.683594 173.09375 149.878906 174.460938 150.855469 176.269531 L 151.5625 177.5625 L 152.171875 176.367188 C 153.6875 173.363281 154.296875 170.335938 154.296875 165.992188 C 154.296875 159.960938 152.929688 155.445312 148.949219 148.316406 C 148.144531 146.851562 147.460938 145.554688 147.460938 145.457031 C 147.460938 144.675781 150.734375 146.800781 152.980469 149.023438 C 156.398438 152.441406 158.667969 156.46875 159.886719 161.179688 C 160.792969 164.625 160.960938 166.089844 160.960938 169.800781 C 160.9375 174.878906 160.109375 178.320312 157.714844 183.226562 C 155.175781 188.402344 151.390625 192.722656 144.75 197.996094 C 140.96875 201 132.300781 207.03125 127.074219 210.253906 C 119.945312 214.671875 117.238281 216.332031 112.183594 219.359375 C 100.636719 226.316406 93.773438 230.859375 89.355469 234.496094 C 86.378906 236.960938 81.445312 241.722656 78.980469 244.507812 C 72.242188 252.148438 67.285156 261.351562 66.039062 268.503906 C 65.625 270.800781 65.578125 271.972656 65.871094 271.972656 C 65.96875 271.972656 67.847656 270.140625 70.070312 267.917969 C 72.289062 265.699219 74.757812 263.355469 75.5625 262.71875 C 77.613281 261.109375 79.347656 259.9375 79.347656 260.203125 C 79.347656 260.328125 78.980469 260.914062 78.539062 261.5 C 78.078125 262.085938 77.050781 263.671875 76.246094 265.015625 C 70.265625 275 67.238281 286.597656 68.066406 296.214844 C 69.117188 308.570312 75.5625 318.164062 86.304688 323.363281 C 90.675781 325.488281 95.09375 326.441406 100.414062 326.390625 C 105.519531 326.34375 106.007812 325.976562 102.980469 324.460938 C 98.609375 322.265625 95.507812 319.089844 93.628906 314.84375 C 91.429688 309.863281 91.847656 302.292969 94.582031 298.167969 C 95.582031 296.628906 96.828125 295.410156 97.386719 295.410156 C 97.511719 295.410156 98.585938 296.191406 99.757812 297.144531 C 105.273438 301.539062 110.132812 303.90625 116.457031 305.296875 C 118.898438 305.835938 125.441406 306.054688 127.882812 305.664062 C 135.695312 304.441406 142.871094 301.074219 147.046875 296.65625 C 148.488281 295.117188 150.292969 292.308594 150.023438 292.039062 C 149.953125 291.96875 148.828125 292.40625 147.535156 293.042969 C 141.527344 295.847656 135.277344 297.386719 130.03125 297.363281 C 126 297.363281 124.023438 296.949219 121.144531 295.507812 C 116.992188 293.457031 113.917969 289.890625 112.378906 285.277344 C 111.742188 283.445312 111.71875 283.03125 111.71875 279.050781 C 111.71875 274.414062 111.964844 273.09375 113.5 269.3125 C 115.601562 264.257812 121.558594 257.128906 128.664062 251.195312 C 131.933594 248.460938 137.328125 244.410156 140.625 242.164062 C 141.894531 241.308594 142.992188 240.550781 143.066406 240.476562 C 143.238281 240.308594 145.800781 238.574219 152.34375 234.253906 C 155.371094 232.226562 159.691406 229.34375 161.9375 227.808594 L 166.015625 225.046875 L 166.015625 210.546875 L 165.234375 209.8125 C 164.796875 209.421875 163.597656 208.445312 162.574219 207.691406 C 159.328125 205.25 157.910156 203.34375 157.226562 200.464844 C 156.496094 197.339844 157.714844 193.992188 159.9375 193.164062 C 160.277344 193.015625 163.574219 192.847656 167.261719 192.773438 C 170.949219 192.675781 174.4375 192.578125 175.050781 192.527344 C 175.660156 192.480469 179.6875 192.359375 184.035156 192.234375 L 191.945312 192.066406 L 192.164062 191.480469 C 192.601562 190.332031 192.1875 186.277344 191.234375 182.203125 C 191.015625 181.226562 190.894531 180.347656 190.992188 180.273438 C 191.359375 179.882812 193.261719 180.785156 195.070312 182.203125 C 196.144531 183.03125 198.121094 184.742188 199.464844 185.984375 L 201.90625 188.28125 L 202.171875 187.574219 C 203.394531 184.398438 203.371094 174.390625 202.125 166.871094 C 201.269531 161.570312 199.023438 154.371094 196.996094 150.316406 L 196.289062 148.925781 L 196.828125 148.925781 C 197.558594 148.925781 203.394531 150.464844 206.175781 151.390625 C 208.691406 152.246094 211.15625 153.441406 213.234375 154.808594 C 214.015625 155.320312 214.746094 155.6875 214.867188 155.613281 C 215.796875 155.054688 213.746094 149.804688 211.035156 145.847656 C 205.714844 138.011719 198.707031 132.203125 188.917969 127.488281 C 187.0625 126.585938 185.546875 125.804688 185.546875 125.730469 C 185.546875 125.4375 190.992188 123.289062 196.09375 121.582031 C 199.023438 120.605469 201.585938 119.652344 201.832031 119.480469 C 202.246094 119.164062 202.246094 119.117188 201.710938 118.652344 C 200.511719 117.652344 193.824219 115.867188 187.574219 114.890625 C 181.226562 113.890625 171.972656 113.5 166.75 114.011719 C 165.480469 114.136719 164.40625 114.183594 164.355469 114.160156 C 164.183594 113.988281 164.964844 112.597656 165.917969 111.328125 C 168.042969 108.496094 171.679688 105.515625 179.566406 100.097656 C 187.160156 94.871094 190.234375 92.261719 193.507812 88.257812 C 199.367188 81.078125 202.6875 72.144531 202.320312 64.453125 C 202.148438 60.691406 201.292969 57.984375 200.757812 59.496094 Z M 108.59375 137.742188 C 105.199219 144.847656 99.097656 149.070312 89.039062 151.21875 C 87.453125 151.585938 85.960938 151.855469 85.742188 151.855469 C 85.5 151.855469 85.960938 151.292969 86.914062 150.414062 C 87.792969 149.632812 89.648438 147.65625 91.066406 145.996094 C 92.480469 144.359375 94.507812 142.308594 95.582031 141.453125 C 98.265625 139.28125 102.539062 137.253906 108.519531 135.300781 C 108.9375 135.179688 109.351562 135.15625 109.472656 135.253906 C 109.570312 135.375 109.179688 136.472656 108.59375 137.742188 Z M 105.371094 172.632812 C 108.226562 173.121094 108.253906 173.21875 105.566406 174.195312 C 102.90625 175.121094 97.363281 177.710938 95.335938 178.953125 C 92.359375 180.785156 89.113281 183.375 85.863281 186.523438 C 81.859375 190.40625 80.785156 191.015625 77.757812 191.113281 C 74.925781 191.210938 69.824219 190.160156 69.824219 189.476562 C 69.824219 189.355469 71.386719 187.671875 73.316406 185.71875 C 80.054688 178.882812 87.988281 174.414062 96.191406 172.851562 C 98.828125 172.339844 103.199219 172.242188 105.371094 172.632812 Z M 58.105469 174.316406 C 59.253906 175.464844 59.425781 177.222656 58.449219 177.855469 C 57.25 178.636719 53.980469 181.933594 52.589844 183.765625 C 51.613281 185.007812 51.125 185.496094 50.929688 185.300781 C 50.78125 185.15625 50.636719 184.300781 50.585938 183.375 C 50.390625 180.027344 52.296875 176.34375 55.152344 174.511719 C 56.445312 173.707031 57.421875 173.632812 58.105469 174.316406 Z M 58.105469 174.316406" />
</svg>
