<svg xmlns="http://www.w3.org/2000/svg" viewBox="30 45 230 230">
  <rect x="30" y="45" width="230" height="230" rx="35" fill="#ffffff"/>
  <path style="stroke:none;fill-rule:nonzero;fill:#e76e50;fill-opacity:1" d="M200.758 59.496c-.442 1.32-1.953 4.613-2.953 6.422-4.836 8.91-12.625 15.062-25.028 19.676-3.808 1.441-5.32 1.883-15.918 4.785-8.37 2.273-17.527 6.031-22.191 9.11-.926.609-1.734 1.097-1.758 1.097-.316 0 .05-1.098 1.028-3.148 1.292-2.711 2.488-5.47 2.78-6.446.15-.488.122-.66-.12-.66-.512 0-7.985 2.977-11.598 4.637-3.074 1.418-6.86 3.347-10.398 5.273-.809.465-1.54.832-1.637.832-.074 0-.195-.902-.293-2.027-.758-9.277.562-16.746 4.273-24.461 2-4.2 3.953-7.352 6.371-10.328 1.586-2.004 2.246-2.98 2.075-3.149-.075-.097-.805.024-1.61.243-4.664 1.32-11.379 5.738-17.09 11.28-4.761 4.614-7.105 7.47-10.476 12.696-2.219 3.442-4.442 9.203-5.86 15.258-2.246 9.52-4.074 14.305-7.296 18.922-2.711 3.906-3.836 5.222-8.84 10.496-2.442 2.562-4.32 5.004-4.98 6.496-.903 1.977-1.075 4.516-.438 6.809 1.097 4.03 1 4.52-1.492 8.254-3.246 4.859-7.59 8.69-11.72 10.328-2.05.804-2.976.879-3.32.265-.12-.219-.34-1.633-.511-3.125-.172-1.488-.39-2.879-.512-3.05-.316-.465-3.394 2.785-5.469 5.761-5.445 7.813-6.91 17.016-4.273 26.735 1.074 3.906 4.273 9.375 7.691 13.109 2.246 2.492 6.446 5.687 7.47 5.687.194 0 .245-.437.124-1.535-.172-1.71.363-4.199 1.34-6.129.613-1.27 2.078-3.078 2.441-3.078.149 0 .367.344.516.781.559 1.59 2.219 4.52 3.539 6.25 4.54 5.91 12.914 11.063 20.215 12.38 2.195.39 4.176.538 4.394.316.145-.121-.78-1.242-2.66-3.246-.93-1-1.687-2.075-1.441-2.075 4.273.024 8.055-.269 10.328-.804 2.637-.637 4.883-1.492 4.883-1.883 0-.098-.367-.293-.781-.363-1.344-.293-4.079-1.809-5.25-2.883-1.051-.977-1.098-1.05-1-2.149.316-3.296 5.37-10.496 10.277-14.625 3.953-3.32 9.496-6.468 13.965-7.91 6.078-1.953 12.476-2.12 19.187-.488 1.344.32 2.735.586 3.078.586.61 0 .61-.047.465-1.121-.195-1.465-2.004-5.227-3.418-7.106-.637-.828-1.758-2.074-2.515-2.757-.735-.684-1.293-1.293-1.223-1.391.27-.246 2.223-.54 3.836-.563 2.855 0 6.664 1.586 9.91 4.176 1.809 1.438 3.004 2.805 3.98 4.614l.708 1.292.609-1.195c1.516-3.004 2.125-6.031 2.125-10.375 0-6.031-1.367-10.547-5.348-17.676-.804-1.464-1.488-2.761-1.488-2.859 0-.781 3.273 1.344 5.52 3.566 3.417 3.418 5.687 7.446 6.906 12.157.906 3.445 1.074 4.91 1.074 8.62-.024 5.079-.852 8.52-3.246 13.427-2.54 5.175-6.324 9.496-12.965 14.77-3.781 3.003-12.45 9.034-17.676 12.257-7.129 4.418-9.836 6.078-14.89 9.105-11.547 6.957-18.41 11.5-22.829 15.137-2.976 2.465-7.91 7.227-10.375 10.012-6.738 7.64-11.695 16.844-12.94 23.996-.415 2.297-.462 3.469-.169 3.469.098 0 1.977-1.832 4.2-4.055 2.218-2.219 4.687-4.563 5.492-5.2 2.05-1.609 3.785-2.78 3.785-2.515 0 .125-.368.711-.809 1.297-.46.586-1.488 2.172-2.293 3.516-5.98 9.984-9.008 21.582-8.18 31.199 1.051 12.355 7.496 21.95 18.239 27.148 4.37 2.125 8.789 3.078 14.11 3.028 5.105-.047 5.593-.414 2.565-1.93-4.37-2.195-7.472-5.371-9.351-9.617-2.2-4.98-1.781-12.551.953-16.676 1-1.54 2.246-2.758 2.805-2.758.125 0 1.199.781 2.37 1.735 5.516 4.394 10.376 6.761 16.7 8.152 2.441.539 8.984.758 11.426.367 7.812-1.223 14.988-4.59 19.164-9.008 1.441-1.539 3.246-4.347 2.976-4.617-.07-.07-1.195.367-2.488 1.004-6.008 2.805-12.258 4.344-17.504 4.32-4.031 0-6.008-.414-8.886-1.855-4.153-2.051-7.227-5.617-8.766-10.23-.637-1.833-.66-2.247-.66-6.227 0-4.637.246-5.957 1.781-9.738 2.102-5.055 8.059-12.184 15.164-18.118 3.27-2.734 8.664-6.785 11.961-9.03 1.27-.856 2.367-1.614 2.441-1.688.172-.168 2.735-1.903 9.278-6.223 3.027-2.027 7.347-4.91 9.594-6.445l4.078-2.762v-14.5l-.782-.734a46 46 0 0 0-2.66-2.122c-3.246-2.441-4.664-4.347-5.347-7.226-.73-3.125.488-6.473 2.71-7.3.34-.15 3.637-.317 7.325-.392 3.687-.097 7.176-.195 7.789-.246.61-.047 4.637-.168 8.984-.293l7.91-.168.22-.586c.437-1.148.023-5.203-.93-9.277-.22-.976-.34-1.855-.243-1.93.367-.39 2.27.512 4.078 1.93 1.075.828 3.051 2.54 4.395 3.781l2.441 2.297.266-.707c1.223-3.176 1.2-13.183-.047-20.703-.855-5.3-3.102-12.5-5.129-16.555l-.707-1.39h.54c.73 0 6.566 1.539 9.347 2.465 2.515.855 4.98 2.05 7.058 3.418.782.511 1.512.879 1.633.804.93-.558-1.12-5.808-3.832-9.765-5.32-7.836-12.328-13.645-22.117-18.36-1.856-.902-3.371-1.683-3.371-1.758 0-.293 5.445-2.44 10.547-4.148 2.93-.977 5.492-1.93 5.738-2.102.414-.316.414-.363-.121-.828-1.2-1-7.887-2.785-14.137-3.761-6.347-1-15.601-1.391-20.824-.88-1.27.126-2.344.173-2.395.15-.171-.173.61-1.563 1.563-2.833 2.125-2.832 5.762-5.812 13.648-11.23 7.594-5.227 10.668-7.836 13.942-11.84 5.86-7.18 9.18-16.113 8.812-23.805-.172-3.762-1.027-6.469-1.562-4.957m-92.164 78.246c-3.395 7.106-9.496 11.328-19.555 13.477-1.586.367-3.078.636-3.297.636-.242 0 .219-.562 1.172-1.44.879-.782 2.734-2.759 4.152-4.419 1.414-1.637 3.442-3.687 4.516-4.543 2.684-2.172 6.957-4.2 12.938-6.152.418-.121.832-.145.953-.047.097.121-.293 1.219-.88 2.488m-3.223 34.89c2.856.49 2.883.587.195 1.563-2.66.926-8.203 3.516-10.23 4.758-2.977 1.832-6.223 4.422-9.473 7.57-4.004 3.883-5.078 4.493-8.105 4.59-2.832.098-7.934-.953-7.934-1.636 0-.122 1.563-1.805 3.492-3.758 6.739-6.836 14.672-11.305 22.875-12.867 2.637-.512 7.008-.61 9.18-.22m-47.266 1.684c1.149 1.149 1.32 2.907.344 3.54-1.199.78-4.469 4.078-5.86 5.91-.976 1.242-1.464 1.73-1.66 1.535-.148-.145-.292-1-.343-1.926-.195-3.348 1.71-7.031 4.566-8.863 1.293-.805 2.27-.88 2.953-.196m0 0"/>
</svg>
